<?xml version="1.0" encoding="utf-8"?>
<!-- Generator: Adobe Illustrator 27.5.0, SVG Export Plug-In . SVG Version: 6.00 Build 0)  -->
<svg version="1.1" xmlns="http://www.w3.org/2000/svg" xmlns:xlink="http://www.w3.org/1999/xlink" x="0px" y="0px"
	 viewBox="0 0 500 500" style="enable-background:new 0 0 500 500;" xml:space="preserve">
<g id="Background_Simple">
	<g>
		<path style="fill:#92E3A9;" d="M53.245,213.46c0,0-43.126,65.045-12.462,163.152c30.664,98.108,119.802,123.138,172.691,95.86
			c52.889-27.278,60.607-62.698,103.314-88.433c42.707-25.735,130.888-24.822,164.834-95.611
			c33.946-70.79-36.444-170.015-116.183-227.152C285.7,4.139,112.61,71.745,53.245,213.46z"/>
		<path style="opacity:0.7;fill:#FFFFFF;" d="M53.245,213.46c0,0-43.126,65.045-12.462,163.152
			c30.664,98.108,119.802,123.138,172.691,95.86c52.889-27.278,60.607-62.698,103.314-88.433
			c42.707-25.735,130.888-24.822,164.834-95.611c33.946-70.79-36.444-170.015-116.183-227.152
			C285.7,4.139,112.61,71.745,53.245,213.46z"/>
	</g>
</g>
<g id="Crowd">
	<g>
		<path style="fill:none;stroke:#263238;stroke-miterlimit:10;" d="M5.416,308.511c0,0,232.381-42.528,479.075-69.516"/>
		<g>
			<circle style="fill:none;stroke:#263238;stroke-miterlimit:10;" cx="92.411" cy="264.182" r="9.235"/>
			<circle style="fill:none;stroke:#263238;stroke-miterlimit:10;" cx="126.833" cy="259.984" r="5.877"/>
			<path style="fill:none;stroke:#263238;stroke-miterlimit:10;" d="M110.042,237.315c0,3.709-3.007,6.717-6.717,6.717
				c-3.709,0-6.716-3.007-6.716-6.717c0-3.71,3.007-6.717,6.716-6.717C107.035,230.599,110.042,233.606,110.042,237.315z"/>
			<path style="fill:none;stroke:#263238;stroke-miterlimit:10;" d="M75.619,222.203c0,2.782-2.255,5.037-5.037,5.037
				c-2.782,0-5.037-2.255-5.037-5.037c0-2.782,2.255-5.037,5.037-5.037C73.364,217.166,75.619,219.421,75.619,222.203z"/>
			<path style="fill:none;stroke:#263238;stroke-miterlimit:10;" d="M99.967,208.35c0,3.014-2.443,5.457-5.457,5.457
				c-3.014,0-5.457-2.443-5.457-5.457c0-3.014,2.443-5.457,5.457-5.457C97.524,202.893,99.967,205.336,99.967,208.35z"/>
			<path style="fill:none;stroke:#263238;stroke-miterlimit:10;" d="M173.849,257.045c0,2.55-2.067,4.618-4.618,4.618
				c-2.55,0-4.618-2.067-4.618-4.618c0-2.55,2.067-4.618,4.618-4.618C171.782,252.428,173.849,254.495,173.849,257.045z"/>
			
				<ellipse transform="matrix(0.9246 -0.3808 0.3808 0.9246 -63.7309 118.1234)" style="fill:none;stroke:#263238;stroke-miterlimit:10;" cx="266.622" cy="220.104" rx="7.976" ry="7.976"/>
			<circle style="fill:none;stroke:#263238;stroke-miterlimit:10;" cx="308.37" cy="190.796" r="8.207"/>
			<path style="fill:none;stroke:#263238;stroke-miterlimit:10;" d="M283.833,197.016c0,1.855-1.504,3.358-3.358,3.358
				c-1.855,0-3.358-1.504-3.358-3.358c0-1.855,1.504-3.358,3.358-3.358C282.33,193.658,283.833,195.161,283.833,197.016z"/>
			<circle style="fill:none;stroke:#263238;stroke-miterlimit:10;" cx="357.715" cy="194.497" r="3.358"/>
			<path style="fill:none;stroke:#263238;stroke-miterlimit:10;" d="M323.293,204.572c0,2.318-1.879,4.198-4.198,4.198
				c-2.318,0-4.198-1.879-4.198-4.198s1.879-4.198,4.198-4.198C321.414,200.374,323.293,202.254,323.293,204.572z"/>
			<circle style="fill:none;stroke:#263238;stroke-miterlimit:10;" cx="412.288" cy="212.128" r="5.877"/>
			<circle style="fill:none;stroke:#263238;stroke-miterlimit:10;" cx="391.718" cy="165.532" r="2.938"/>
			<path style="fill:none;stroke:#263238;stroke-miterlimit:10;" d="M444.191,195.337c0,2.782-2.255,5.037-5.038,5.037
				s-5.037-2.255-5.037-5.037c0-2.782,2.255-5.037,5.037-5.037S444.191,192.555,444.191,195.337z"/>
			<circle style="fill:none;stroke:#263238;stroke-miterlimit:10;" cx="428.659" cy="224.302" r="5.457"/>
			<path style="fill:none;stroke:#263238;stroke-miterlimit:10;" d="M388.78,188.2c0,2.087-1.691,3.778-3.778,3.778
				c-2.087,0-3.778-1.691-3.778-3.778c0-2.086,1.691-3.778,3.778-3.778C387.088,184.422,388.78,186.114,388.78,188.2z"/>
			<circle style="fill:none;stroke:#263238;stroke-miterlimit:10;" cx="388.36" cy="147.061" r="8.815"/>
			<path style="fill:none;stroke:#263238;stroke-miterlimit:10;" d="M468.539,225.561c0,2.318-1.879,4.198-4.198,4.198
				c-2.318,0-4.198-1.879-4.198-4.198s1.879-4.198,4.198-4.198C466.659,221.363,468.539,223.243,468.539,225.561z"/>
			
				<ellipse transform="matrix(0.7071 -0.7071 0.7071 0.7071 -49.5101 355.1028)" style="fill:none;stroke:#263238;stroke-miterlimit:10;" cx="403.892" cy="237.315" rx="7.556" ry="7.556"/>
			<path style="fill:none;stroke:#263238;stroke-miterlimit:10;" d="M438.314,175.187c0,2.318-1.88,4.198-4.198,4.198
				s-4.198-1.879-4.198-4.198c0-2.318,1.88-4.198,4.198-4.198S438.314,172.869,438.314,175.187z"/>
			<path style="fill:none;stroke:#263238;stroke-miterlimit:10;" d="M223.384,236.896c0,2.55-2.067,4.618-4.618,4.618
				c-2.55,0-4.618-2.067-4.618-4.618c0-2.55,2.067-4.618,4.618-4.618C221.317,232.278,223.384,234.345,223.384,236.896z"/>
			<circle style="fill:none;stroke:#263238;stroke-miterlimit:10;" cx="229.261" cy="263.342" r="6.717"/>
			<path style="fill:none;stroke:#263238;stroke-miterlimit:10;" d="M197.357,244.452c0,2.087-1.691,3.778-3.778,3.778
				c-2.087,0-3.778-1.691-3.778-3.778c0-2.087,1.691-3.778,3.778-3.778C195.666,240.674,197.357,242.365,197.357,244.452z"/>
			<circle style="fill:none;stroke:#263238;stroke-miterlimit:10;" cx="145.304" cy="275.096" r="5.037"/>
			<path style="fill:none;stroke:#263238;stroke-miterlimit:10;" d="M58.828,282.233c0,3.478-2.819,6.297-6.297,6.297
				c-3.478,0-6.297-2.819-6.297-6.297c0-3.478,2.819-6.297,6.297-6.297C56.009,275.936,58.828,278.755,58.828,282.233z"/>
			<circle style="fill:none;stroke:#263238;stroke-miterlimit:10;" cx="60.927" cy="250.329" r="2.939"/>
			<circle style="fill:none;stroke:#263238;stroke-miterlimit:10;" cx="98.708" cy="174.767" r="2.938"/>
			<path style="fill:none;stroke:#263238;stroke-miterlimit:10;" d="M42.037,266.7c0,2.318-1.879,4.198-4.198,4.198
				c-2.318,0-4.198-1.879-4.198-4.198c0-2.318,1.879-4.198,4.198-4.198C40.157,262.503,42.037,264.382,42.037,266.7z"/>
		</g>
	</g>
</g>
<g id="Floor_1_">
	<path style="fill:none;stroke:#263238;stroke-miterlimit:10;" d="M30.603,414.297c0,0,216.619-40.812,446.581-66.712"/>
</g>
<g id="Shadow">
	<path style="fill:#263238;" d="M445.713,361.741c0.669,4.291-82.331,20.787-185.384,36.845
		C157.275,414.643,73.192,424.181,72.523,419.89c-0.669-4.291,82.331-20.787,185.384-36.845
		C360.961,366.988,445.044,357.449,445.713,361.741z"/>
</g>
<g id="Car">
	<g>
		<g>
			<path style="fill:#FFFFFF;stroke:#263238;stroke-miterlimit:10;" d="M262.244,366.284c1.035-5.43,1.257-11.5,0.478-17.822
				c-0.779-6.323-2.466-12.158-4.788-17.174l-2.517-20.437l-20.009,2.973c-12.539,1.544-20.64,19.556-18.093,40.231
				c2.546,20.674,14.775,36.182,27.314,34.638l20.009-2.973L262.244,366.284z"/>
			
				<ellipse transform="matrix(0.9925 -0.1222 0.1222 0.9925 -40.6251 34.3983)" style="fill:#263238;stroke:#263238;stroke-miterlimit:10;" cx="260.027" cy="348.286" rx="22.875" ry="37.717"/>
			
				<ellipse transform="matrix(0.9925 -0.1222 0.1222 0.9925 -40.6265 34.3996)" style="fill:#FFFFFF;stroke:#263238;stroke-miterlimit:10;" cx="260.027" cy="348.286" rx="14.912" ry="24.587"/>
			<path style="fill:#FFFFFF;stroke:#263238;stroke-miterlimit:10;" d="M262.381,347.098c0.551,4.476-1.202,8.375-3.917,8.709
				c-2.714,0.334-5.362-3.023-5.913-7.499c-0.551-4.476,1.202-8.375,3.917-8.709C259.183,339.265,261.83,342.622,262.381,347.098z"
				/>
		</g>
		<path style="fill:#263238;stroke:#263238;stroke-miterlimit:10;" d="M450.029,311.93l-10.935,2.431c0,0-9.732-18.059-24.9-15.564
			c-15.168,2.495-21.81,17.422-21.81,17.422s6.047-32.744,17.364-42.551c11.317-9.807,18.646-2.569,23.043-0.27
			C437.188,275.696,448.613,301.28,450.029,311.93z"/>
		<g>
			<path style="fill:#263238;stroke:#263238;stroke-miterlimit:10;" d="M424.747,344.664c1.035-5.43,1.257-11.5,0.478-17.822
				c-0.779-6.322-2.466-12.157-4.788-17.174l-2.517-20.437l-20.009,2.973c-12.539,1.544-20.639,19.556-18.093,40.231
				c2.546,20.674,14.775,36.182,27.314,34.638l20.009-2.973L424.747,344.664z"/>
			
				<ellipse transform="matrix(0.9925 -0.1222 0.1222 0.9925 -36.7636 54.1011)" style="fill:#263238;stroke:#263238;stroke-miterlimit:10;" cx="422.53" cy="326.665" rx="22.875" ry="37.717"/>
			<path style="fill:#FFFFFF;stroke:#263238;stroke-miterlimit:10;" d="M437.33,324.843c1.66,13.477-3.621,25.218-11.794,26.225
				c-8.174,1.007-16.146-9.102-17.805-22.579c-1.66-13.477,3.621-25.218,11.794-26.225
				C427.698,301.257,435.67,311.366,437.33,324.843z"/>
			<path style="fill:#FFFFFF;stroke:#263238;stroke-miterlimit:10;" d="M424.884,325.477c0.551,4.476-1.202,8.375-3.917,8.709
				c-2.715,0.334-5.362-3.023-5.913-7.499c-0.551-4.476,1.202-8.375,3.917-8.709C421.685,317.644,424.332,321.001,424.884,325.477z"
				/>
		</g>
		<g>
			<path style="fill:#545454;stroke:#263238;stroke-miterlimit:10;" d="M91.142,393.122c1.035-5.43,1.256-11.5,0.478-17.822
				c-0.779-6.323-2.466-12.158-4.788-17.174l-2.517-20.437l-20.009,2.972c-12.539,1.544-20.64,19.556-18.093,40.231
				c2.546,20.674,14.776,36.182,27.314,34.638l20.009-2.973L91.142,393.122z"/>
			
				<ellipse transform="matrix(0.9925 -0.1222 0.1222 0.9925 -45.1908 13.6843)" style="fill:#263238;stroke:#263238;stroke-miterlimit:10;" cx="88.925" cy="375.124" rx="22.875" ry="37.717"/>
			
				<ellipse transform="matrix(0.9925 -0.1222 0.1222 0.9925 -45.1888 13.6836)" style="fill:#263238;stroke:#263238;stroke-miterlimit:10;" cx="88.925" cy="375.124" rx="14.912" ry="24.587"/>
			<path style="fill:#263238;stroke:#263238;stroke-miterlimit:10;" d="M91.279,373.936c0.551,4.476-1.202,8.375-3.917,8.709
				c-2.715,0.334-5.362-3.023-5.913-7.499c-0.551-4.476,1.202-8.375,3.917-8.709C88.08,366.103,90.727,369.46,91.279,373.936z"/>
		</g>
		<g>
			<path style="fill:#263238;stroke:#263238;stroke-miterlimit:10;" d="M71.185,333.679c0,0,5.747-1.144,8.01,0.767
				c2.263,1.91,2.634,4.469,2.634,4.469l15.622-1.348l4.679-13.522c0,0-7.485-1.622-13.581,0.686
				C82.453,327.039,71.185,333.679,71.185,333.679z"/>
			<path style="fill:#545454;stroke:#263238;stroke-miterlimit:10;" d="M99.431,322.658c0,0-33.347,1.169-42.496,6.096
				c-9.148,4.927-9.567,11.169-9.567,11.169l27.439-3.746c0,0,11.267-10.301,22.383-10.915L99.431,322.658z"/>
		</g>
		<path style="fill:#92E3A9;stroke:#263238;stroke-miterlimit:10;" d="M195.999,292.01c0,0-65.793,14.04-78.322,19.609
			c-12.529,5.569-24.147,15.606-28.877,23.457c-4.729,7.852-0.861,17.153,0.007,19.582c0.867,2.429,5.256,17.023,12.708,22.169
			c7.452,5.146,10.749,6.708,16.05,6.596c5.301-0.112,33.004-1.923,41.516-4.551c8.512-2.628,209.442-32.676,209.442-32.676
			s25.426-11.461,30.65-15.243c5.223-3.782,4.741-5.953,5.283-14.448c0.542-8.496,1.731-29.099,10.17-39.748
			c8.439-10.648,20.919-0.984,27.382,14.403c6.463,15.387,8.021,20.77,8.021,20.77s2.046,2.845,0.476-3.079
			c-1.569-5.924-2.29-14.393-8.865-26.529c-6.575-12.136-16.08-17.711-22.049-18.307s-15.329,0.686-15.329,0.686
			s-2.196-1.398-6.35-1.49c-4.154-0.093-18.435-1.054-43.243,3.804c-24.808,4.858-107.081,14.52-107.081,14.52L195.999,292.01z"/>
		<path style="fill:#FFFFFF;" d="M154.176,312.296c1.589,5.128-7.5,12.501-20.301,16.468c-12.801,3.967-24.467,3.025-26.056-2.103
			c-1.589-5.128,7.5-12.501,20.301-16.468C140.921,306.226,152.587,307.168,154.176,312.296z"/>
		<path style="fill:#FFFFFF;" d="M399.468,292.919c0.134,6.347-4.822,11.6-11.07,11.732c-6.248,0.132-11.422-4.906-11.557-11.253
			c-0.134-6.347,4.822-11.6,11.07-11.732C394.159,281.533,399.333,286.572,399.468,292.919z"/>
		<path style="fill:none;stroke:#263238;stroke-miterlimit:10;" d="M171.282,364.78c-2.632,7.089-8.123,10.607-8.123,10.607"/>
		<path style="fill:none;stroke:#263238;stroke-miterlimit:10;" d="M196.689,323.56c0,0-27.937,4.439-28.943,8.857
			c-1.006,4.418,4.639,11.444,4.907,24.08c0.023,1.089-0.028,2.13-0.142,3.124"/>
		<polygon style="fill:#263238;" points="270.702,340.681 364.883,323.847 364.741,332.819 274.697,350.1 		"/>
		<g>
			<path style="fill:none;stroke:#263238;stroke-miterlimit:10;" d="M157.854,326.146c6.454-6.432,18.818-15.702,39.849-21.05"/>
			<path style="fill:none;stroke:#263238;stroke-miterlimit:10;" d="M152.001,333.238c0,0,1.039-1.801,3.463-4.554"/>
			<path style="fill:none;stroke:#263238;stroke-miterlimit:10;" d="M202.24,320.607c0.614,4.021,0.972,7.018,0.972,7.018"/>
			<path style="fill:none;stroke:#263238;stroke-miterlimit:10;" d="M169.93,300.652c0,0,23.095-2.502,26.659-0.564
				c1.785,0.97,3.442,7.875,4.653,14.527"/>
		</g>
		<g>
			
				<ellipse transform="matrix(0.9998 -0.0212 0.0212 0.9998 -6.4324 6.0207)" style="fill:#FFFFFF;" cx="281.314" cy="307" rx="28.641" ry="27.396"/>
			<g>
				<path style="fill:#263238;" d="M266.502,328.594l-0.658-4.406l5.435-15.428c0.397-1.131,0.771-2.212,1.121-3.242
					c0.349-1.028,0.605-2.077,0.769-3.145c0.163-1.068,0.154-2.202-0.025-3.4c-0.201-1.349-0.556-2.342-1.064-2.98
					c-0.508-0.638-1.187-0.869-2.038-0.695c-0.802,0.164-1.386,0.562-1.756,1.194c-0.37,0.632-0.572,1.399-0.604,2.301
					c-0.034,0.902,0.029,1.878,0.185,2.927l0.228,1.528l-5.106,1.045l-0.241-1.618c-0.322-2.158-0.336-4.108-0.042-5.852
					c0.294-1.743,0.96-3.2,1.998-4.37c1.038-1.169,2.507-1.95,4.41-2.339c2.602-0.532,4.679-0.092,6.232,1.319
					c1.552,1.412,2.552,3.617,2.999,6.614c0.224,1.5,0.251,2.891,0.081,4.177c-0.17,1.285-0.459,2.542-0.869,3.768
					c-0.411,1.227-0.866,2.493-1.368,3.801l-4.54,12.604l9.235-1.89l0.745,4.99L266.502,328.594z"/>
				<path style="fill:#263238;" d="M285.16,324.776l-0.658-4.406l5.436-15.428c0.397-1.131,0.772-2.212,1.122-3.242
					c0.349-1.028,0.605-2.077,0.769-3.145c0.163-1.068,0.154-2.202-0.024-3.4c-0.201-1.349-0.556-2.342-1.064-2.98
					c-0.508-0.637-1.187-0.869-2.038-0.695c-0.802,0.164-1.387,0.562-1.757,1.194s-0.571,1.399-0.605,2.302
					c-0.033,0.902,0.029,1.878,0.186,2.927l0.228,1.528l-5.106,1.045l-0.242-1.618c-0.322-2.158-0.336-4.108-0.042-5.852
					c0.294-1.743,0.96-3.2,1.998-4.37c1.038-1.169,2.507-1.949,4.41-2.339c2.602-0.533,4.68-0.092,6.232,1.319
					c1.552,1.413,2.552,3.617,2.999,6.614c0.224,1.5,0.251,2.891,0.081,4.177c-0.17,1.285-0.459,2.542-0.869,3.768
					c-0.411,1.227-0.866,2.493-1.367,3.801l-4.541,12.604l9.236-1.89l0.745,4.99L285.16,324.776z"/>
			</g>
		</g>
		<polygon style="fill:#263238;stroke:#263238;stroke-miterlimit:10;" points="244.952,291.391 263.463,314.475 246.643,326.451 
			223.404,326.468 205.181,305.749 215.202,297.475 		"/>
		<path style="fill:#263238;stroke:#263238;stroke-miterlimit:10;" d="M134.581,333.366c0,0-21.954,1.421-33.988,4.861
			c-12.034,3.441-10.3,10.095-7.272,17.677c3.028,7.582,6.022,13.573,11.436,13.458c5.414-0.115,35.953-2.354,40.046-4.671
			c4.093-2.317,3.606-10.272,2.807-17.901C146.811,339.161,144.467,333.794,134.581,333.366z"/>
		<path style="fill:#263238;stroke:#263238;stroke-miterlimit:10;" d="M254.853,302.869c0,0,9.236,2.52,16.499,16.309
			c7.263,13.789,8.658,24.798,8.658,24.798l-7.718,1.325c0,0-5.62-18.472-18.114-23.242c-12.495-4.77-15.563-3.35-15.563-3.35
			s1.24-5.449-10.044-7.921C228.571,310.788,237.113,301.11,254.853,302.869z"/>
		<g>
			<polygon style="fill:#263238;stroke:#263238;stroke-miterlimit:10;" points="212.908,335.953 172.056,337.946 174.077,340.159 
				211.84,338.796 			"/>
			<polygon style="fill:#263238;stroke:#263238;stroke-miterlimit:10;" points="214.332,369.774 168.655,372.092 170.919,374.746 
				213.143,373.177 			"/>
			<polygon style="fill:#263238;stroke:#263238;stroke-miterlimit:10;" points="211.053,354.888 189.916,355.617 191.397,357.816 
				211.376,356.855 			"/>
		</g>
		<g>
			<path style="fill:#545454;stroke:#263238;stroke-miterlimit:10;" d="M254.21,370.895c1.035-5.43,1.257-11.5,0.478-17.822
				c-0.779-6.323-2.466-12.158-4.788-17.174l-2.517-20.437l-20.009,2.973c-12.539,1.544-20.639,19.556-18.093,40.231
				c2.546,20.674,14.776,36.182,27.314,34.638l20.009-2.973L254.21,370.895z"/>
			
				<ellipse transform="matrix(0.9925 -0.1222 0.1222 0.9925 -41.2489 33.4508)" style="fill:#263238;stroke:#263238;stroke-miterlimit:10;" cx="251.993" cy="352.897" rx="22.875" ry="37.717"/>
			
				<ellipse transform="matrix(0.9925 -0.1222 0.1222 0.9925 -41.2503 33.452)" style="fill:#FFFFFF;stroke:#263238;stroke-miterlimit:10;" cx="251.993" cy="352.897" rx="14.912" ry="24.587"/>
			<path style="fill:#263238;stroke:#263238;stroke-miterlimit:10;" d="M254.347,351.708c0.551,4.476-1.202,8.375-3.917,8.709
				c-2.715,0.334-5.362-3.023-5.913-7.498c-0.551-4.476,1.202-8.375,3.917-8.709C251.148,343.876,253.796,347.233,254.347,351.708z"
				/>
		</g>
		<g>
			<path style="fill:#545454;stroke:#263238;stroke-miterlimit:10;" d="M252.437,302.641c-7.624-0.721-15.312-0.532-22.845,0.793
				c-5.031,0.885-10.267,2.251-13.744,4.349c-8.694,5.245-8.845,11.496-8.845,11.496l26.531-4.714c0,0,10.534-10.689,21.319-11.696
				L252.437,302.641z"/>
		</g>
		<line style="fill:none;stroke:#263238;stroke-miterlimit:10;" x1="394.604" y1="266.801" x2="400.105" y2="265.995"/>
		<path style="fill:none;stroke:#263238;stroke-miterlimit:10;" d="M368.523,346.196c0,0-10.322-61.264,13.587-77.564l6.454-0.946"
			/>
		<g>
			<path style="fill:#263238;" d="M249.858,241.9l-1.562-3.291c0.208-0.099,21.08-9.94,41.286-14.375l0.781,3.558
				C270.558,232.137,250.063,241.802,249.858,241.9z"/>
		</g>
		<g>
			<path style="fill:#263238;" d="M222.6,246.383l-3.383-1.524c12.286-7.839,71.909-21.283,74.381-21.786l0.725,3.57
				C293.725,226.765,234.32,238.905,222.6,246.383z"/>
		</g>
		<path style="fill:#263238;" d="M301.409,274.717c0,0-2.58-4.061-3.556-8.905c-0.976-4.844,0.42-9.612-4.927-14.738
			c-5.347-5.125-15.413-3.415-23.299,1.117c-7.886,4.532-6.309,14.227-7.461,18.741c-1.152,4.514-3.553,8.931-3.553,8.931
			L301.409,274.717z"/>
		<g>
			<g>
				<path style="fill:#FFFFFF;stroke:#263238;stroke-miterlimit:10;" d="M284.533,261.106c0,0-18.165,13.855-22.619,15.57
					c-4.454,1.716-6.334,1.257-9.148-2.051c-2.814-3.308-5.768-13.223-6.427-20.817c-0.66-7.594,4.368-17.553,15.156-20.526
					c10.788-2.972,21.511,2.787,23.41,9.981c1.898,7.194,3.479,11.151,2.51,12.544c-0.968,1.392-2.337,1.546-2.313,2.668
					C285.124,259.597,284.533,261.106,284.533,261.106z"/>
				<path style="fill:#263238;stroke:#263238;stroke-miterlimit:10;" d="M248.679,264.235c0,0,0.43,2.61,6.642,1.481
					c6.212-1.129,14.968-5.805,16.934-7.218c1.966-1.414,1.03-4.387,0.868-6.13c-0.162-1.743-1.865,0.289-12.671,2.388
					c-10.806,2.1-13.435,1.656-13.435,1.656L248.679,264.235z"/>
				<g>
					<path style="fill:#FFFFFF;stroke:#263238;stroke-miterlimit:10;" d="M261.16,254.612c-0.24,0.048-0.46,0.096-0.709,0.145
						c-0.457,0.089-0.879,0.167-1.308,0.247l2.137,8.944c0.635-0.242,1.266-0.496,1.889-0.759L261.16,254.612z"/>
					<path style="fill:#FFFFFF;stroke:#263238;stroke-miterlimit:10;" d="M255.321,265.716c0.775-0.141,1.589-0.337,2.425-0.575
						l-2.236-9.503c-2.112,0.339-3.746,0.544-4.979,0.661l2.121,9.693C253.397,265.984,254.27,265.906,255.321,265.716z"/>
				</g>
			</g>
			<path style="fill:#92E3A9;stroke:#263238;stroke-miterlimit:10;" d="M284.533,261.106c0,0,2.093-0.002,2.121,1.339
				c0.028,1.341-0.868,6.561-0.868,6.561l15.622,5.711l-42.795,5.147l3.3-3.188L284.533,261.106z"/>
		</g>
		<path style="fill:#263238;stroke:#263238;stroke-miterlimit:10;" d="M319.99,262.033l0.668,2.386
			c0.262,0.934,1.201,1.508,2.151,1.313l11.927-2.442c1.042-0.213,1.689-1.259,1.415-2.287l-0.839-3.149
			c-0.264-0.991-1.284-1.577-2.273-1.308l-11.756,3.205C320.294,260.021,319.714,261.045,319.99,262.033z"/>
		<path style="fill:none;stroke:#263238;stroke-miterlimit:10;" d="M326.138,265.3c0,0,1.37,1.313,0.06,2.851
			c-1.309,1.538-5.784,4.149-5.784,4.149"/>
		<path style="fill:#263238;stroke:#263238;stroke-miterlimit:10;" d="M178.841,279.389c-1.031-0.023-1.846,0.883-1.693,1.903
			c0.214,1.423,0.664,3.123,1.606,3.569c1.695,0.803,5.223,1.064,7.903,0.839c2.679-0.224,3.675-0.749,3.489-1.584
			c-0.109-0.489-0.647-2.235-1.074-3.598c-0.316-1.008-1.29-1.655-2.342-1.556C184.633,279.159,181.151,279.44,178.841,279.389z"/>
		<path style="fill:none;stroke:#263238;stroke-miterlimit:10;" d="M185.159,286.235c0,0-0.653,0.853,0.874,1.659
			c1.527,0.806,7.542,5.016,7.542,5.016"/>
		<path style="fill:#263238;stroke:#263238;stroke-miterlimit:10;" d="M112.728,318.749l-4.656,4.601l33.421-4.71l5.273-4.99
			C146.767,313.651,123.654,314.891,112.728,318.749z"/>
		<g>
			<path style="fill:#263238;" d="M302.49,312.152L302.49,312.152c-0.978-0.215-1.601-1.174-1.392-2.154
				c1.568-7.346,7.457-35.724,7.856-49.169c0.484-16.311-1.063-23.814-5.173-25.089c-5.194-1.526-73.041,9.466-84.369,12.268
				c-9.442,2.336-10.867,5.744-13.706,12.533l-0.266,0.637c-3.003,7.161-11.777,31.486-11.866,31.731l-3.886,0.885
				c0.362-1.003,9.355-26.778,12.394-34.025l0.265-0.633c2.993-7.158,4.97-11.887,16.192-14.663
				c10.187-2.52,79.933-14.19,86.321-12.211c7.061,2.189,8.199,13.046,7.735,28.675c-0.413,13.935-6.332,42.359-7.933,49.826
				C304.45,311.751,303.477,312.37,302.49,312.152z"/>
		</g>
		<g>
			<path style="fill:#263238;" d="M310.126,239.76l-1.804-3.164c1.405-0.802,34.777-19.673,65.745-23.272l0.42,3.617
				C344.269,220.454,310.464,239.567,310.126,239.76z"/>
		</g>
		<g>
			<g>
				<polygon style="fill:#263238;" points="333.598,304.764 318.234,273.366 322.595,271.232 339.082,304.857 				"/>
			</g>
			<path style="fill:#263238;" d="M359.816,310.096c-6.473,0.137-40.059-4.891-54.886-7.167l0.552-3.6
				c19.471,2.99,51.453,7.585,54.303,7.157c2.362-0.704,2.679-0.798,4.408-6.134c0.93-2.864,2.521-11.22,4.06-19.3
				c2.113-11.091,3.452-17.976,4.332-19.673c1.511-2.913,9.12-18.969,9.196-19.131l3.292,1.56
				c-0.315,0.663-7.713,16.277-9.254,19.247c-0.681,1.321-2.515,10.945-3.988,18.68c-1.632,8.567-3.174,16.66-4.173,19.741
				c-2.107,6.502-3.198,7.421-6.945,8.529C360.534,310.057,360.231,310.087,359.816,310.096z"/>
		</g>
		<g>
			
				<rect x="341.093" y="216.274" transform="matrix(0.2648 -0.9643 0.9643 0.2648 10.9932 514.495)" style="fill:#263238;" width="3.642" height="67.527"/>
		</g>
		<g>
			<path style="fill:#263238;" d="M380.764,263.77l-3.76-0.132c0.001-0.001,4.337-12.889,5.593-16.658
				c0.974-2.918-2.488-16.936-5.901-25.939c-2.566-6.775-4.331-7.298-18.83-5.62c-18.356,2.125-70.81,11.343-74.408,15.082
				c-0.818,1.121-0.735,1.58-0.734,1.584c0.096,0.181,4.57,1.651,5.192,1.709l-4.062,2.452c-0.343-0.027-3.379-0.331-4.441-2.644
				c-0.699-1.524-0.318-3.303,1.135-5.288c4.457-6.091,71.403-15.877,76.899-16.513c13.982-1.62,19.005-1.688,22.655,7.947
				c2.77,7.309,7.52,23.674,5.949,28.382C384.795,251.906,380.764,263.77,380.764,263.77z"/>
		</g>
		<g>
			<polygon style="fill:#263238;" points="368.371,265.058 341.665,216.669 344.853,214.909 372.28,264.362 			"/>
		</g>
		<g>
			<polygon style="fill:#263238;" points="316.356,273.371 291.282,226.285 296.64,223.432 322.183,272.158 			"/>
		</g>
		<g>
			
				<rect x="287.753" y="236.806" transform="matrix(0.8612 -0.5083 0.5083 0.8612 -75.1711 201.9864)" style="fill:#263238;" width="88.973" height="3.642"/>
		</g>
		<path style="fill:#BFBFBF;stroke:#263238;stroke-miterlimit:10;" d="M212.696,293.779c0,0-10.783,5.257-10.329,6.923
			s2.637,5.811,5.168,6.595c2.531,0.784,5.864-0.124,6.256-1.389c0.392-1.265,4.064-5.952,4.064-5.952l27.929-6.877l3.849,3.69
			c0,0-4.776-7.86-7.725-8.636S212.696,293.779,212.696,293.779z"/>
		<g>
			<path style="fill:#FFFFFF;stroke:#263238;stroke-miterlimit:10;" d="M247.588,281.535c0,0-7.487-6.777-16.059-7.003
				c-8.572-0.227-21.968,2.913-27.174,7.511c-5.206,4.598-8.356,9.968-8.356,9.968L247.588,281.535z"/>
			<path style="fill:#FFFFFF;stroke:#263238;stroke-miterlimit:10;" d="M247.588,281.535c0,0-3.886-3.502-9.255-5.554
				c-11.349,3.52-24.295,10.904-28.075,13.134L247.588,281.535z"/>
		</g>
	</g>
</g>
<g id="Flag">
	<g>
		<path style="fill:#263238;" d="M349.51,43.266c4.731-0.014,9.414,0.076,14.012,0.275l0.145,14.36
			c-4.598-0.199-9.281-0.289-14.012-0.275L349.51,43.266"/>
		<path style="fill:#FFFFFF;" d="M349.656,57.673l0-0.048c4.731-0.014,9.414,0.076,14.012,0.275l0.179,17.736
			c-5.847-0.216-7.697-0.264-14.012-0.275L349.656,57.673"/>
		<path style="fill:#263238;" d="M349.835,75.4l0-0.038c6.017,0.017,7.886,0.043,14.012,0.275l0.18,17.785
			c-4.598-0.199-9.281-0.289-14.012-0.275L349.835,75.4"/>
		<path style="fill:#FFFFFF;" d="M350.014,93.194l-0.001-0.048c4.731-0.014,9.414,0.076,14.012,0.275l0.179,17.736
			c-4.598-0.199-9.281-0.289-14.012-0.275L350.014,93.194"/>
		<path style="fill:#263238;" d="M350.193,110.921l0-0.039c4.731-0.014,9.414,0.076,14.012,0.275l0.18,17.785
			c-4.598-0.199-9.281-0.289-14.012-0.275L350.193,110.921"/>
		<path style="fill:#FFFFFF;" d="M350.373,128.705l0-0.038c4.731-0.014,9.414,0.076,14.012,0.275l0.179,17.726
			c-4.598-0.199-9.281-0.289-14.012-0.275L350.373,128.705"/>
		<path style="fill:#263238;" d="M350.552,146.442l0-0.048c4.731-0.014,9.414,0.076,14.012,0.275l0.18,17.794
			c-4.598-0.199-9.281-0.289-14.012-0.275L350.552,146.442"/>
		<path style="fill:#FFFFFF;" d="M350.731,164.226l0-0.038c4.731-0.014,9.414,0.076,14.012,0.275l0.147,14.511
			c-4.598-0.199-9.281-0.289-14.012-0.275L350.731,164.226"/>
		<g>
			<polyline style="fill:#FFFFFF;" points="349.655,57.625 349.655,57.568 349.656,57.673 349.655,57.625 			"/>
			<path style="fill:#FFFFFF;" d="M323.984,44.302c8.522-0.657,17.1-1.012,25.526-1.036l0.144,14.302
				c-8.426,0.025-17.005,0.379-25.526,1.036L323.984,44.302"/>
		</g>
		<path style="fill:#263238;" d="M349.835,75.4l0-0.038l-0.178-17.688l-0.001-0.106c-8.426,0.025-17.005,0.379-25.526,1.036l0,0.039
			l0.179,17.746c8.522-0.657,17.1-1.012,25.527-1.036L349.835,75.4"/>
		<path style="fill:#FFFFFF;" d="M350.014,93.194l-0.001-0.048L349.835,75.4l0-0.048c-8.426,0.024-17.005,0.379-25.526,1.036
			l0,0.048l0.179,17.688c8.522-0.657,17.1-1.012,25.527-1.036L350.014,93.194"/>
		<path style="fill:#263238;" d="M350.193,110.921l0-0.039l-0.179-17.688l-0.001-0.106c-8.426,0.024-17.005,0.379-25.527,1.036
			l0,0.038l0.179,17.746c8.522-0.657,17.1-1.012,25.526-1.036L350.193,110.921"/>
		<path style="fill:#FFFFFF;" d="M350.373,128.705l0-0.038l-0.179-17.746l-0.001-0.048c-8.426,0.024-17.005,0.379-25.526,1.036
			l0,0.038l0.179,17.689c8.522-0.657,17.1-1.012,25.526-1.036L350.373,128.705"/>
		<path style="fill:#263238;" d="M350.552,146.442l0-0.048l-0.179-17.688l-0.001-0.105c-8.426,0.025-17.005,0.379-25.526,1.036
			l0,0.048l0.179,17.746c8.522-0.658,17.1-1.012,25.526-1.036L350.552,146.442"/>
		<path style="fill:#FFFFFF;" d="M350.731,164.226l0-0.038l-0.179-17.746l0-0.048c-8.426,0.025-17.005,0.379-25.526,1.036l0,0.039
			l0.179,17.688c8.522-0.657,17.1-1.012,25.527-1.036L350.731,164.226"/>
		<path style="fill:#263238;" d="M325.204,165.195l0-0.039c8.522-0.657,17.1-1.012,25.527-1.036l0.001,0.106l0.146,14.472
			c-8.426,0.025-17.005,0.379-25.526,1.036L325.204,165.195"/>
		<g>
			<polyline style="fill:#263238;" points="324.128,58.604 324.128,58.595 324.129,58.643 324.128,58.604 			"/>
			<path style="fill:#263238;" d="M298.796,47.157c8.2-1.237,16.666-2.197,25.188-2.855l0.144,14.293
				c-8.522,0.657-16.987,1.618-25.188,2.855L298.796,47.157"/>
		</g>
		<path style="fill:#FFFFFF;" d="M324.308,76.436l-0.001-0.048l-0.179-17.746l-0.001-0.048c-8.522,0.657-16.987,1.618-25.188,2.855
			l0,0.038l0.179,17.688c8.201-1.237,16.666-2.198,25.188-2.855L324.308,76.436"/>
		<path style="fill:#263238;" d="M324.487,94.163l0-0.038l-0.179-17.688l-0.001-0.115c-8.522,0.657-16.987,1.618-25.188,2.855
			l0,0.048l0.179,17.746c8.2-1.237,16.666-2.197,25.188-2.855L324.487,94.163"/>
		<path style="fill:#FFFFFF;" d="M324.667,111.947l0-0.038l-0.179-17.746l0-0.048c-8.522,0.657-16.987,1.618-25.188,2.855l0,0.038
			l0.179,17.689c8.2-1.237,16.666-2.197,25.188-2.855L324.667,111.947"/>
		<path style="fill:#263238;" d="M324.846,129.684l0-0.048l-0.179-17.689l-0.001-0.105c-8.522,0.658-16.987,1.618-25.188,2.855
			l0.001,0.048l0.179,17.746c8.2-1.237,16.666-2.197,25.188-2.855L324.846,129.684"/>
		<path style="fill:#FFFFFF;" d="M325.025,147.468l0-0.038l-0.179-17.746l0-0.048c-8.522,0.657-16.987,1.618-25.188,2.855l0,0.038
			l0.179,17.688c8.2-1.237,16.666-2.197,25.188-2.855L325.025,147.468"/>
		<path style="fill:#263238;" d="M325.204,165.195l0-0.039l-0.179-17.688l-0.001-0.106c-8.522,0.657-16.987,1.618-25.188,2.855
			l0,0.038l0.179,17.746c8.201-1.237,16.666-2.198,25.188-2.855L325.204,165.195"/>
		<path style="fill:#FFFFFF;" d="M300.017,168.05l0-0.048c8.201-1.237,16.666-2.198,25.188-2.855l0,0.048l0.147,14.54
			c-8.522,0.657-16.987,1.618-25.188,2.855L300.017,168.05"/>
		<g>
			<polyline style="fill:#FFFFFF;" points="298.941,61.45 298.94,61.382 298.941,61.488 298.941,61.45 			"/>
			<path style="fill:#FFFFFF;" d="M276.692,51.322c4.261-0.979,8.669-1.878,13.186-2.692c2.93-0.528,5.906-1.019,8.919-1.474
				l0.144,14.226c-3.012,0.454-5.988,0.946-8.919,1.474c-4.518,0.813-8.925,1.712-13.186,2.692L276.692,51.322"/>
		</g>
		<path style="fill:#263238;" d="M299.12,79.224l0-0.048l-0.179-17.688l-0.001-0.106c-3.012,0.454-5.988,0.946-8.919,1.474
			c-4.518,0.813-8.925,1.712-13.186,2.692l0,0.048l0.179,17.746c4.261-0.979,8.669-1.878,13.186-2.692
			c2.93-0.528,5.907-1.019,8.919-1.474L299.12,79.224"/>
		<path style="fill:#FFFFFF;" d="M299.3,97.008l0-0.038l-0.179-17.746l0-0.048c-3.012,0.454-5.988,0.946-8.919,1.474
			c-4.517,0.813-8.925,1.712-13.186,2.692l0,0.038l0.179,17.689c4.261-0.979,8.668-1.878,13.186-2.692
			c2.93-0.528,5.907-1.019,8.919-1.474L299.3,97.008"/>
		<path style="fill:#263238;" d="M299.479,114.745l-0.001-0.048l-0.179-17.689l-0.001-0.105c-3.012,0.454-5.988,0.946-8.919,1.474
			c-4.517,0.813-8.925,1.712-13.186,2.692l0,0.038l0.179,17.746c4.261-0.979,8.668-1.878,13.186-2.692
			c2.93-0.528,5.907-1.019,8.919-1.474L299.479,114.745"/>
		<path style="fill:#FFFFFF;" d="M299.658,132.529l0-0.038l-0.179-17.746l-0.001-0.058c-3.012,0.454-5.988,0.946-8.919,1.474
			c-4.517,0.813-8.925,1.712-13.186,2.692l0,0.048l0.179,17.688c4.261-0.979,8.669-1.878,13.186-2.692
			c2.93-0.528,5.906-1.019,8.919-1.474L299.658,132.529"/>
		<path style="fill:#263238;" d="M299.837,150.256l0-0.038l-0.179-17.688l-0.001-0.106c-3.012,0.454-5.988,0.946-8.919,1.474
			c-4.517,0.813-8.925,1.712-13.186,2.692l0,0.039l0.179,17.746c4.261-0.979,8.668-1.878,13.186-2.692
			c2.93-0.528,5.907-1.019,8.919-1.474L299.837,150.256"/>
		<path style="fill:#FFFFFF;" d="M300.017,168.05l0-0.048l-0.179-17.746l0-0.048c-3.012,0.454-5.988,0.946-8.919,1.474
			c-4.518,0.813-8.925,1.712-13.186,2.692l0,0.048l0.179,17.688c4.261-0.979,8.668-1.878,13.186-2.692
			c2.93-0.528,5.907-1.019,8.919-1.473L300.017,168.05"/>
		<path style="fill:#263238;" d="M277.911,172.148l0-0.038c4.261-0.979,8.668-1.878,13.186-2.692
			c2.93-0.528,5.907-1.019,8.919-1.473l0.001,0.106l0.147,14.54c-3.012,0.454-5.988,0.946-8.919,1.473
			c-4.518,0.813-8.925,1.712-13.186,2.692L277.911,172.148"/>
		<g>
			<polyline style="fill:#263238;" points="276.835,65.548 276.836,65.595 276.835,65.548 			"/>
			<path style="fill:#263238;" d="M257.756,56.546c5.846-1.93,12.207-3.678,18.935-5.224l0.144,14.226
				c-6.728,1.547-13.089,3.295-18.935,5.225L257.756,56.546"/>
		</g>
		<path style="fill:#FFFFFF;" d="M277.015,83.38l0-0.038l-0.179-17.746l0-0.048c-6.728,1.547-13.089,3.295-18.935,5.225l0,0.038
			l0.178,17.688c5.846-1.93,12.207-3.678,18.935-5.225L277.015,83.38"/>
		<path style="fill:#263238;" d="M277.194,101.106l0-0.038l-0.179-17.689l-0.001-0.105c-6.728,1.547-13.089,3.295-18.935,5.225
			l0,0.038l0.179,17.746c5.846-1.93,12.207-3.678,18.935-5.224L277.194,101.106"/>
		<path style="fill:#FFFFFF;" d="M277.374,118.9l0-0.048l-0.179-17.746l-0.001-0.048c-6.728,1.547-13.089,3.294-18.935,5.224
			l0,0.048l0.179,17.689c5.846-1.93,12.207-3.678,18.935-5.225L277.374,118.9"/>
		<path style="fill:#263238;" d="M277.553,136.627l0-0.038l-0.179-17.688l-0.001-0.105c-6.728,1.547-13.089,3.294-18.935,5.224
			l0,0.038l0.179,17.746c5.846-1.93,12.207-3.678,18.935-5.225L277.553,136.627"/>
		<path style="fill:#FFFFFF;" d="M277.732,154.421l0-0.048l-0.179-17.746l0-0.048c-6.728,1.547-13.089,3.294-18.935,5.224l0,0.048
			l0.178,17.679c5.846-1.93,12.207-3.678,18.935-5.225L277.732,154.421"/>
		<path style="fill:#263238;" d="M277.911,172.148l0-0.038l-0.179-17.688l-0.001-0.115c-6.728,1.547-13.089,3.294-18.935,5.224
			l0.001,0.048l0.179,17.746c5.846-1.93,12.207-3.678,18.935-5.225L277.911,172.148"/>
		<path style="fill:#FFFFFF;" d="M258.976,177.363l0-0.038c5.846-1.93,12.207-3.678,18.935-5.225l0.001,0.048l0.147,14.607
			c-6.728,1.547-13.089,3.294-18.935,5.224L258.976,177.363"/>
		<g>
			<polyline style="fill:#FFFFFF;" points="257.9,70.772 257.899,70.705 257.9,70.811 257.9,70.772 			"/>
			<path style="fill:#FFFFFF;" d="M244.212,62.61c2.916-1.865,6.447-3.615,11.013-5.206c0.833-0.29,1.676-0.576,2.531-0.858
				l0.143,14.158c-0.855,0.282-1.699,0.568-2.531,0.858c-4.565,1.59-8.097,3.34-11.013,5.206L244.212,62.61"/>
		</g>
		<path style="fill:#263238;" d="M258.079,88.537l0-0.038L257.9,70.811l-0.001-0.106c-0.855,0.282-1.699,0.568-2.531,0.858
			c-4.565,1.59-8.097,3.34-11.013,5.206l0,0.039l0.179,17.745c2.916-1.865,6.448-3.615,11.013-5.206
			c0.832-0.29,1.676-0.576,2.531-0.858L258.079,88.537"/>
		<path style="fill:#FFFFFF;" d="M258.259,106.331l-0.001-0.048l-0.179-17.746l0-0.048c-0.855,0.282-1.699,0.568-2.531,0.858
			c-4.565,1.59-8.097,3.34-11.013,5.206l0,0.048l0.179,17.689c2.916-1.865,6.448-3.615,11.013-5.206
			c0.832-0.29,1.676-0.576,2.531-0.858L258.259,106.331"/>
		<path style="fill:#263238;" d="M258.438,124.058l0-0.038l-0.179-17.689l-0.001-0.105c-0.855,0.282-1.699,0.568-2.531,0.858
			c-4.565,1.59-8.097,3.34-11.013,5.206l0,0.038l0.179,17.746c2.916-1.865,6.448-3.615,11.013-5.206
			c0.833-0.29,1.676-0.576,2.531-0.858L258.438,124.058"/>
		<path style="fill:#FFFFFF;" d="M258.618,141.852l-0.001-0.048l-0.179-17.746l0-0.048c-0.855,0.282-1.699,0.568-2.531,0.858
			c-4.565,1.59-8.097,3.34-11.013,5.206l0,0.038l0.179,17.688c2.916-1.865,6.447-3.615,11.013-5.206
			c0.832-0.29,1.676-0.576,2.531-0.858L258.618,141.852"/>
		<path style="fill:#263238;" d="M258.797,159.578l-0.001-0.048l-0.178-17.679l-0.001-0.115c-0.855,0.282-1.699,0.568-2.531,0.858
			c-4.565,1.59-8.097,3.34-11.013,5.206l0.001,0.048l0.179,17.746c2.916-1.865,6.448-3.615,11.013-5.206
			c0.833-0.29,1.677-0.576,2.531-0.858L258.797,159.578"/>
		<path style="fill:#FFFFFF;" d="M258.976,177.363l0-0.038l-0.179-17.746l-0.001-0.048c-0.855,0.282-1.699,0.568-2.531,0.858
			c-4.565,1.59-8.097,3.34-11.013,5.206l0,0.039l0.179,17.688c2.916-1.865,6.447-3.615,11.013-5.206
			c0.832-0.29,1.676-0.576,2.531-0.858L258.976,177.363"/>
		<path style="fill:#263238;" d="M245.431,183.369l-0.001-0.048c2.916-1.865,6.447-3.615,11.013-5.206
			c0.832-0.29,1.676-0.576,2.531-0.858l0.001,0.106l0.148,14.616c-0.855,0.282-1.699,0.568-2.531,0.858
			c-4.565,1.59-8.097,3.34-11.013,5.206L245.431,183.369"/>
		<g>
			<polyline style="fill:#263238;" points="244.355,76.769 244.355,76.759 244.355,76.807 244.355,76.769 			"/>
			<path style="fill:#263238;" d="M235.766,69.635c2.414-2.453,4.999-4.819,8.446-7.024l0.143,14.149
				c-3.446,2.205-6.032,4.571-8.446,7.024L235.766,69.635"/>
		</g>
		<path style="fill:#FFFFFF;" d="M244.535,94.601l-0.001-0.048l-0.179-17.745l-0.001-0.048c-3.446,2.205-6.032,4.571-8.446,7.024
			l0.179,17.737c2.414-2.453,4.999-4.819,8.446-7.024L244.535,94.601"/>
		<path style="fill:#263238;" d="M244.714,112.328l0-0.038l-0.179-17.689l-0.001-0.105c-3.447,2.205-6.032,4.571-8.446,7.024
			l0.18,17.784c2.414-2.453,4.999-4.819,8.446-7.024L244.714,112.328"/>
		<path style="fill:#FFFFFF;" d="M244.893,130.112l0-0.038l-0.179-17.746l0-0.048c-3.447,2.205-6.032,4.571-8.446,7.024
			l0.179,17.727c2.414-2.453,4.999-4.819,8.446-7.024L244.893,130.112"/>
		<path style="fill:#263238;" d="M245.073,147.848l-0.001-0.048l-0.179-17.688l-0.001-0.106c-3.447,2.205-6.032,4.571-8.446,7.024
			l0.18,17.794c2.414-2.454,4.999-4.819,8.446-7.024L245.073,147.848"/>
		<path style="fill:#FFFFFF;" d="M245.252,165.633l0-0.039l-0.179-17.746l-0.001-0.048c-3.447,2.205-6.032,4.571-8.446,7.024
			l0.179,17.727c2.414-2.454,4.999-4.819,8.446-7.024L245.252,165.633"/>
		<path style="fill:#263238;" d="M245.431,183.369l-0.001-0.048l-0.179-17.688l-0.001-0.106c-3.447,2.205-6.032,4.571-8.446,7.024
			l0.18,17.784c2.414-2.453,4.999-4.819,8.446-7.024L245.431,183.369"/>
		<path style="fill:#FFFFFF;" d="M236.985,190.335c2.414-2.453,4.999-4.819,8.446-7.024l0.001,0.058l0.148,14.674
			c-3.447,2.205-6.032,4.571-8.446,7.024L236.985,190.335"/>
		<path style="fill:#FFFFFF;" d="M228.791,76.758c1.656-1.55,3.136-3.109,4.605-4.656c0.764-0.805,1.521-1.603,2.296-2.392
			l0.147,14.552l-0.001-0.106c-0.775,0.789-1.533,1.587-2.296,2.392c-1.468,1.547-2.949,3.106-4.605,4.656L228.791,76.758"/>
		<path style="fill:#263238;" d="M236.018,101.988l-0.179-17.726l-0.001-0.106c-0.775,0.789-1.533,1.587-2.296,2.392
			c-1.468,1.547-2.949,3.106-4.605,4.656l0,0.038l0.179,17.746c1.656-1.55,3.136-3.109,4.605-4.656
			c0.764-0.805,1.522-1.603,2.296-2.392L236.018,101.988"/>
		<path style="fill:#FFFFFF;" d="M236.197,119.773l-0.18-17.785l0-0.048c-0.775,0.789-1.533,1.588-2.296,2.392
			c-1.468,1.547-2.948,3.106-4.605,4.656l0,0.039l0.179,17.688c1.656-1.55,3.136-3.109,4.605-4.656
			c0.764-0.805,1.521-1.603,2.296-2.392L236.197,119.773"/>
		<path style="fill:#263238;" d="M236.377,137.509l-0.179-17.736l-0.001-0.106c-0.775,0.789-1.533,1.588-2.296,2.392
			c-1.468,1.547-2.949,3.106-4.605,4.656l0,0.048l0.179,17.746c1.656-1.55,3.136-3.109,4.605-4.656
			c0.764-0.805,1.521-1.603,2.296-2.392L236.377,137.509"/>
		<path style="fill:#FFFFFF;" d="M236.556,155.294l-0.179-17.785l-0.001-0.048c-0.775,0.789-1.533,1.588-2.296,2.392
			c-1.468,1.547-2.948,3.106-4.605,4.656l0,0.038l0.179,17.688c1.656-1.55,3.136-3.109,4.605-4.656
			c0.764-0.805,1.521-1.603,2.296-2.392L236.556,155.294"/>
		<path style="fill:#263238;" d="M236.735,173.03l-0.179-17.736l-0.001-0.106c-0.775,0.789-1.533,1.587-2.296,2.392
			c-1.468,1.547-2.949,3.106-4.605,4.656l0.001,0.048l0.179,17.746c1.656-1.55,3.136-3.109,4.605-4.656
			c0.764-0.805,1.521-1.603,2.296-2.392L236.735,173.03"/>
		<path style="fill:#FFFFFF;" d="M236.915,190.814l-0.179-17.785l-0.001-0.048c-0.775,0.789-1.533,1.588-2.296,2.392
			c-1.468,1.547-2.948,3.106-4.605,4.656l0,0.039l0.179,17.688c1.656-1.55,3.136-3.109,4.605-4.656
			c0.764-0.805,1.521-1.603,2.296-2.392L236.915,190.814"/>
		<path style="fill:#263238;" d="M230.013,197.796l0-0.039c1.656-1.55,3.136-3.109,4.605-4.656c0.764-0.805,1.521-1.603,2.296-2.392
			l0.001,0.106l0.145,14.328c-0.775,0.789-1.533,1.588-2.296,2.392c-1.468,1.547-2.949,3.106-4.605,4.656L230.013,197.796"/>
		<g>
			<polyline style="fill:#263238;" points="228.937,91.205 228.937,91.195 228.937,91.243 228.937,91.205 			"/>
			<path style="fill:#263238;" d="M219.757,83.508c3.751-2.184,6.585-4.457,9.035-6.75l0.146,14.437
				c-2.449,2.293-5.284,4.566-9.034,6.75L219.757,83.508"/>
		</g>
		<path style="fill:#FFFFFF;" d="M229.117,109.027l0-0.038l-0.179-17.746l-0.001-0.048c-2.449,2.293-5.284,4.566-9.034,6.75l0,0.038
			l0.178,17.688c3.751-2.184,6.585-4.457,9.035-6.75L229.117,109.027"/>
		<path style="fill:#263238;" d="M229.296,126.763l0-0.048l-0.179-17.688l-0.001-0.106c-2.449,2.293-5.284,4.566-9.035,6.75
			l0.001,0.048l0.179,17.746c3.751-2.184,6.585-4.457,9.035-6.75L229.296,126.763"/>
		<path style="fill:#FFFFFF;" d="M229.475,144.548l0-0.038l-0.179-17.746l0-0.048c-2.45,2.293-5.284,4.566-9.035,6.75l0,0.038
			l0.179,17.688c3.751-2.184,6.585-4.457,9.035-6.75L229.475,144.548"/>
		<path style="fill:#263238;" d="M229.655,162.284l-0.001-0.048l-0.179-17.688l-0.001-0.106c-2.449,2.293-5.284,4.566-9.035,6.75
			l0,0.038l0.179,17.746c3.751-2.184,6.585-4.457,9.035-6.75L229.655,162.284"/>
		<path style="fill:#FFFFFF;" d="M229.834,180.069l0-0.039l-0.179-17.746l-0.001-0.057c-2.449,2.293-5.284,4.566-9.035,6.75l0,0.048
			l0.179,17.688c3.751-2.184,6.585-4.457,9.035-6.75L229.834,180.069"/>
		<path style="fill:#263238;" d="M230.013,197.796l0-0.039l-0.179-17.688l-0.001-0.106c-2.449,2.293-5.284,4.566-9.035,6.75l0,0.039
			l0.179,17.745c3.751-2.184,6.585-4.457,9.035-6.75L230.013,197.796"/>
		<path style="fill:#FFFFFF;" d="M220.979,204.546l-0.001-0.048c3.751-2.184,6.585-4.457,9.035-6.75l0.001,0.049l0.145,14.395
			c-2.45,2.293-5.284,4.566-9.035,6.75L220.979,204.546"/>
		<g>
			<polyline style="fill:#FFFFFF;" points="219.902,97.945 219.902,97.878 219.903,97.983 219.902,97.945 			"/>
			<path style="fill:#FFFFFF;" d="M205.225,89.723c6.114-1.936,10.781-4.031,14.532-6.215l0.145,14.369
				c-3.751,2.184-8.418,4.279-14.532,6.215L205.225,89.723"/>
		</g>
		<path style="fill:#263238;" d="M220.082,115.719l-0.001-0.048l-0.178-17.688l-0.001-0.106c-3.751,2.184-8.418,4.279-14.532,6.215
			l0.001,0.048l0.179,17.746c6.114-1.936,10.781-4.031,14.532-6.215L220.082,115.719"/>
		<path style="fill:#FFFFFF;" d="M220.261,133.504l0-0.038l-0.179-17.746l-0.001-0.048c-3.751,2.184-8.418,4.279-14.532,6.215
			l0,0.038l0.179,17.688c6.114-1.936,10.781-4.031,14.532-6.215L220.261,133.504"/>
		<path style="fill:#263238;" d="M220.44,151.231l0-0.038l-0.179-17.688l-0.001-0.106c-3.751,2.184-8.418,4.279-14.532,6.215
			l0,0.038l0.179,17.746c6.114-1.936,10.781-4.031,14.532-6.215L220.44,151.231"/>
		<path style="fill:#FFFFFF;" d="M220.62,169.025l0-0.048l-0.179-17.746l-0.001-0.048c-3.751,2.184-8.418,4.279-14.532,6.215
			l0,0.048l0.179,17.688c6.115-1.936,10.781-4.031,14.532-6.215L220.62,169.025"/>
		<path style="fill:#263238;" d="M220.799,186.752l0-0.038l-0.179-17.688l-0.001-0.106c-3.751,2.184-8.418,4.279-14.532,6.215
			l0,0.039l0.179,17.745c6.114-1.936,10.781-4.031,14.532-6.215L220.799,186.752"/>
		<path style="fill:#FFFFFF;" d="M220.979,204.546l-0.001-0.048l-0.179-17.745l0-0.048c-3.751,2.184-8.418,4.279-14.532,6.215
			l0,0.039l0.179,17.688c6.115-1.936,10.781-4.031,14.532-6.215L220.979,204.546"/>
		<path style="fill:#263238;" d="M206.446,210.693l-0.001-0.048c6.115-1.936,10.781-4.031,14.532-6.215l0.001,0.116l0.145,14.395
			c-3.751,2.184-8.418,4.279-14.532,6.215C206.543,220.335,206.494,215.514,206.446,210.693"/>
		<g>
			<polyline style="fill:#263238;" points="205.369,104.092 205.369,104.083 205.37,104.14 205.369,104.092 			"/>
			<path style="fill:#263238;" d="M181.78,94.711c2.701-0.363,5.377-0.778,8.004-1.251c4.662-0.84,9.157-1.859,13.352-3.099
				c0.714-0.211,1.411-0.424,2.089-0.638l0.145,14.36c-0.678,0.215-1.374,0.427-2.089,0.638c-4.195,1.24-8.689,2.26-13.352,3.099
				c-2.627,0.473-5.303,0.888-8.004,1.251L181.78,94.711"/>
		</g>
		<path style="fill:#FFFFFF;" d="M205.55,121.925l0-0.038l-0.179-17.746l-0.001-0.057c-0.678,0.215-1.374,0.427-2.089,0.638
			c-4.195,1.24-8.689,2.26-13.352,3.099c-2.627,0.473-5.303,0.888-8.004,1.251l0,0.048l0.179,17.688
			c2.701-0.363,5.377-0.778,8.004-1.251c4.662-0.84,9.157-1.859,13.352-3.099c0.715-0.211,1.411-0.424,2.089-0.638L205.55,121.925"
			/>
		<path style="fill:#263238;" d="M205.729,139.652l0-0.038l-0.179-17.688l-0.001-0.106c-0.678,0.215-1.374,0.427-2.089,0.638
			c-4.195,1.241-8.689,2.26-13.352,3.099c-2.627,0.473-5.303,0.888-8.004,1.251l0,0.039l0.179,17.746
			c2.701-0.363,5.377-0.778,8.004-1.251c4.662-0.839,9.157-1.859,13.352-3.099c0.715-0.211,1.411-0.423,2.089-0.638L205.729,139.652
			"/>
		<path style="fill:#FFFFFF;" d="M205.908,157.446l-0.001-0.048l-0.179-17.746l-0.001-0.048c-0.678,0.215-1.374,0.428-2.089,0.638
			c-4.195,1.241-8.689,2.26-13.352,3.099c-2.627,0.473-5.303,0.888-8.004,1.251l0,0.048l0.179,17.688
			c2.701-0.363,5.377-0.778,8.004-1.251c4.662-0.839,9.157-1.859,13.352-3.099c0.715-0.211,1.411-0.424,2.089-0.638L205.908,157.446
			"/>
		<path style="fill:#263238;" d="M206.087,175.172l0-0.039l-0.179-17.688l-0.001-0.106c-0.678,0.215-1.374,0.427-2.089,0.638
			c-4.195,1.24-8.689,2.26-13.352,3.099c-2.627,0.473-5.303,0.888-8.004,1.251l0,0.038l0.179,17.746
			c2.701-0.363,5.377-0.778,8.004-1.251c4.662-0.839,9.157-1.859,13.352-3.099c0.715-0.211,1.411-0.423,2.089-0.638L206.087,175.172
			"/>
		<path style="fill:#FFFFFF;" d="M206.267,192.956l0-0.039l-0.179-17.745l-0.001-0.048c-0.678,0.215-1.374,0.428-2.089,0.638
			c-4.195,1.24-8.689,2.26-13.352,3.099c-2.627,0.473-5.303,0.888-8.004,1.251l0,0.038l0.179,17.688
			c2.701-0.363,5.377-0.778,8.004-1.251c4.662-0.84,9.157-1.859,13.352-3.099c0.714-0.211,1.411-0.423,2.089-0.638L206.267,192.956"
			/>
		<path style="fill:#263238;" d="M206.446,210.693l-0.001-0.048l-0.179-17.688l-0.001-0.106c-0.678,0.215-1.374,0.428-2.089,0.638
			c-4.195,1.24-8.69,2.26-13.352,3.099c-2.627,0.473-5.303,0.888-8.004,1.251l0.001,0.048l0.179,17.745
			c2.701-0.363,5.377-0.778,8.004-1.251c4.662-0.839,9.157-1.859,13.352-3.099c0.715-0.211,1.411-0.423,2.089-0.638L206.446,210.693
			"/>
		<path style="fill:#FFFFFF;" d="M183.001,215.671l0-0.039c2.701-0.363,5.377-0.778,8.004-1.251
			c4.662-0.839,9.157-1.859,13.352-3.099c0.715-0.211,1.411-0.423,2.089-0.638l0.001,0.048c0.049,4.821,0.097,9.641,0.146,14.462
			c-0.678,0.215-1.374,0.428-2.089,0.638c-4.195,1.24-8.689,2.26-13.352,3.099c-2.627,0.473-5.303,0.888-8.004,1.251
			L183.001,215.671"/>
		<g>
			<polyline style="fill:#FFFFFF;" points="181.925,109.071 181.924,109.013 181.925,109.119 181.925,109.071 			"/>
			<path style="fill:#FFFFFF;" d="M147.447,97.03c10.496-0.146,22.639-0.747,34.332-2.319l0.144,14.302
				c-11.694,1.572-23.836,2.173-34.333,2.319L147.447,97.03"/>
		</g>
		<path style="fill:#263238;" d="M182.104,126.846l0-0.038l-0.179-17.688l-0.001-0.106c-11.694,1.572-23.836,2.173-34.333,2.319
			l0,0.038l0.179,17.746c10.496-0.146,22.639-0.747,34.332-2.319L182.104,126.846"/>
		<path style="fill:#FFFFFF;" d="M182.284,144.64l0-0.048l-0.179-17.746l-0.001-0.048c-11.694,1.572-23.836,2.173-34.332,2.319
			l0.001,0.048l0.178,17.688c10.497-0.146,22.639-0.747,34.333-2.319L182.284,144.64"/>
		<path style="fill:#263238;" d="M182.463,162.367l0-0.038l-0.179-17.688l-0.001-0.106c-11.694,1.572-23.836,2.173-34.333,2.319
			l0,0.039l0.179,17.746c10.497-0.146,22.639-0.747,34.333-2.319L182.463,162.367"/>
		<path style="fill:#FFFFFF;" d="M182.642,180.151l0-0.038l-0.179-17.746l0-0.048c-11.694,1.572-23.836,2.173-34.333,2.319l0,0.038
			l0.179,17.689c10.497-0.146,22.639-0.747,34.333-2.319L182.642,180.151"/>
		<path style="fill:#263238;" d="M182.822,197.887l-0.001-0.048l-0.179-17.688l-0.001-0.105
			c-11.694,1.572-23.836,2.173-34.333,2.319l0,0.048l0.179,17.746c10.497-0.146,22.639-0.747,34.333-2.319L182.822,197.887"/>
		<path style="fill:#FFFFFF;" d="M183.001,215.671l0-0.039l-0.179-17.745l-0.001-0.048c-11.694,1.572-23.836,2.173-34.333,2.319
			l0,0.038l0.178,17.688c10.497-0.146,22.639-0.747,34.333-2.319L183.001,215.671"/>
		<path style="fill:#263238;" d="M148.668,217.923l0-0.038c10.497-0.146,22.639-0.747,34.333-2.319l0.001,0.106l0.146,14.472
			c-11.694,1.572-23.836,2.173-34.332,2.319L148.668,217.923"/>
		<g>
			<polyline style="fill:#263238;" points="147.592,111.332 147.592,111.323 147.592,111.371 147.592,111.332 			"/>
			<path style="fill:#263238;" d="M122.981,96.617c5.109,0.249,13.964,0.559,24.466,0.413l0.144,14.293
				c-10.502,0.146-19.357-0.164-24.466-0.413L122.981,96.617"/>
		</g>
		<path style="fill:#FFFFFF;" d="M147.772,129.165l-0.001-0.048l-0.179-17.746l0-0.048c-10.502,0.146-19.357-0.164-24.466-0.413
			l0,0.039l0.178,17.688c5.109,0.249,13.964,0.559,24.466,0.413L147.772,129.165"/>
		<path style="fill:#263238;" d="M147.951,146.892l0-0.039l-0.178-17.688l-0.001-0.115c-10.502,0.146-19.357-0.164-24.466-0.413
			l0.001,0.048l0.179,17.746c5.11,0.249,13.964,0.559,24.466,0.413L147.951,146.892"/>
		<path style="fill:#FFFFFF;" d="M148.13,164.676l0-0.038l-0.179-17.746l-0.001-0.048c-10.502,0.146-19.357-0.164-24.466-0.413
			l0,0.038l0.179,17.689c5.11,0.249,13.964,0.559,24.466,0.413L148.13,164.676"/>
		<path style="fill:#263238;" d="M148.309,182.412l0-0.048l-0.179-17.689l-0.001-0.105c-10.502,0.146-19.357-0.164-24.466-0.413
			l0,0.048l0.179,17.746c5.11,0.249,13.964,0.559,24.466,0.413L148.309,182.412"/>
		<path style="fill:#FFFFFF;" d="M148.489,200.196l0-0.038l-0.179-17.746l0-0.048c-10.502,0.146-19.357-0.164-24.466-0.413l0,0.038
			l0.179,17.688c5.11,0.249,13.964,0.559,24.466,0.413L148.489,200.196"/>
		<path style="fill:#263238;" d="M148.668,217.923l0-0.038l-0.178-17.688l-0.001-0.106c-10.502,0.146-19.357-0.164-24.466-0.413
			l0,0.038l0.179,17.746c5.11,0.249,13.964,0.559,24.466,0.413L148.668,217.923"/>
		<path style="fill:#FFFFFF;" d="M124.202,217.51l0-0.048c5.11,0.249,13.964,0.559,24.466,0.413l0.001,0.048l0.147,14.54
			c-10.502,0.146-19.357-0.164-24.466-0.413L124.202,217.51"/>
		<g>
			<polyline style="fill:#FFFFFF;" points="123.126,110.91 123.125,110.843 123.126,110.948 123.126,110.91 			"/>
			<path style="fill:#FFFFFF;" d="M118.283,96.346c0.094,0.007,1.789,0.129,4.698,0.271l0.144,14.226
				c-2.91-0.142-4.605-0.264-4.698-0.271L118.283,96.346"/>
		</g>
		<g>
			<polyline style="fill:#263238;" points="123.304,128.637 123.305,128.685 123.304,128.637 			"/>
			<path style="fill:#263238;" d="M118.426,110.572c0.093,0.007,1.789,0.129,4.698,0.271l0.001,0.106l0.178,17.688
				c-2.91-0.142-4.605-0.264-4.698-0.271L118.426,110.572"/>
		</g>
		<g>
			<polyline style="fill:#FFFFFF;" points="123.484,146.431 123.483,146.363 123.484,146.469 123.484,146.431 			"/>
			<path style="fill:#FFFFFF;" d="M118.606,128.366c0.093,0.007,1.789,0.129,4.698,0.271l0.001,0.048l0.178,17.679
				c-2.91-0.142-4.605-0.264-4.698-0.271L118.606,128.366"/>
		</g>
		<g>
			<polyline style="fill:#263238;" points="123.663,164.157 123.663,164.148 123.663,164.205 123.663,164.157 			"/>
			<path style="fill:#263238;" d="M118.785,146.093c0.093,0.007,1.789,0.129,4.698,0.271l0.001,0.105l0.179,17.679
				c-2.91-0.142-4.605-0.264-4.698-0.271L118.785,146.093"/>
		</g>
		<g>
			<polyline style="fill:#FFFFFF;" points="123.843,181.951 123.842,181.884 123.843,181.989 123.843,181.951 			"/>
			<path style="fill:#FFFFFF;" d="M118.965,163.877c0.093,0.007,1.789,0.129,4.698,0.271l0.001,0.058l0.178,17.678
				c-2.91-0.142-4.605-0.264-4.698-0.271L118.965,163.877"/>
		</g>
		<g>
			<polyline style="fill:#263238;" points="124.022,199.678 124.021,199.668 124.022,199.716 124.022,199.678 			"/>
			<path style="fill:#263238;" d="M119.144,181.613c0.093,0.007,1.789,0.129,4.698,0.271l0.001,0.106l0.178,17.679
				c-2.91-0.142-4.605-0.264-4.698-0.271L119.144,181.613"/>
		</g>
		<g>
			<polyline style="fill:#FFFFFF;" points="124.201,217.462 124.201,217.404 124.202,217.51 124.201,217.462 			"/>
			<path style="fill:#FFFFFF;" d="M119.323,199.398c0.093,0.007,1.789,0.129,4.698,0.271l0.001,0.048l0.178,17.688
				c-2.91-0.142-4.605-0.264-4.698-0.271L119.323,199.398"/>
		</g>
		<path style="fill:#263238;" d="M119.502,217.134c0.094,0.007,1.789,0.129,4.698,0.271l0.001,0.106l0.147,14.54
			c-2.91-0.142-4.605-0.264-4.698-0.271L119.502,217.134"/>
	</g>
</g>
</svg>
